<mxfile host="app.diagrams.net" agent="Mozilla/5.0 (Windows NT 10.0; Win64; x64) AppleWebKit/537.36 (KHTML, like Gecko) Chrome/131.0.0.0 Safari/537.36" version="25.0.1">
  <diagram name="หน้า-1" id="Vp53shPcramfv10NECHh">
    <mxGraphModel dx="1050" dy="530" grid="1" gridSize="10" guides="1" tooltips="1" connect="1" arrows="1" fold="1" page="1" pageScale="1" pageWidth="827" pageHeight="1169" math="0" shadow="0">
      <root>
        <mxCell id="0" />
        <mxCell id="1" parent="0" />
        <mxCell id="4Pg8XA9wM-0VigFQCISD-3" value="" style="edgeStyle=orthogonalEdgeStyle;rounded=0;orthogonalLoop=1;jettySize=auto;html=1;" edge="1" parent="1" source="4Pg8XA9wM-0VigFQCISD-1" target="4Pg8XA9wM-0VigFQCISD-2">
          <mxGeometry relative="1" as="geometry" />
        </mxCell>
        <mxCell id="4Pg8XA9wM-0VigFQCISD-1" value="Start" style="ellipse;whiteSpace=wrap;html=1;" vertex="1" parent="1">
          <mxGeometry x="354" y="10" width="120" height="80" as="geometry" />
        </mxCell>
        <mxCell id="4Pg8XA9wM-0VigFQCISD-5" value="" style="edgeStyle=orthogonalEdgeStyle;rounded=0;orthogonalLoop=1;jettySize=auto;html=1;" edge="1" parent="1" source="4Pg8XA9wM-0VigFQCISD-2" target="4Pg8XA9wM-0VigFQCISD-4">
          <mxGeometry relative="1" as="geometry" />
        </mxCell>
        <mxCell id="4Pg8XA9wM-0VigFQCISD-2" value="Input name1" style="shape=parallelogram;perimeter=parallelogramPerimeter;whiteSpace=wrap;html=1;fixedSize=1;" vertex="1" parent="1">
          <mxGeometry x="354" y="180" width="120" height="60" as="geometry" />
        </mxCell>
        <mxCell id="4Pg8XA9wM-0VigFQCISD-7" value="" style="edgeStyle=orthogonalEdgeStyle;rounded=0;orthogonalLoop=1;jettySize=auto;html=1;" edge="1" parent="1" source="4Pg8XA9wM-0VigFQCISD-4" target="4Pg8XA9wM-0VigFQCISD-6">
          <mxGeometry relative="1" as="geometry" />
        </mxCell>
        <mxCell id="4Pg8XA9wM-0VigFQCISD-4" value="Input age1" style="shape=parallelogram;perimeter=parallelogramPerimeter;whiteSpace=wrap;html=1;fixedSize=1;" vertex="1" parent="1">
          <mxGeometry x="354" y="320" width="120" height="60" as="geometry" />
        </mxCell>
        <mxCell id="4Pg8XA9wM-0VigFQCISD-9" value="" style="edgeStyle=orthogonalEdgeStyle;rounded=0;orthogonalLoop=1;jettySize=auto;html=1;" edge="1" parent="1" source="4Pg8XA9wM-0VigFQCISD-6" target="4Pg8XA9wM-0VigFQCISD-8">
          <mxGeometry relative="1" as="geometry" />
        </mxCell>
        <mxCell id="4Pg8XA9wM-0VigFQCISD-6" value="Input name2" style="shape=parallelogram;perimeter=parallelogramPerimeter;whiteSpace=wrap;html=1;fixedSize=1;" vertex="1" parent="1">
          <mxGeometry x="354" y="460" width="120" height="60" as="geometry" />
        </mxCell>
        <mxCell id="4Pg8XA9wM-0VigFQCISD-11" value="" style="edgeStyle=orthogonalEdgeStyle;rounded=0;orthogonalLoop=1;jettySize=auto;html=1;" edge="1" parent="1" source="4Pg8XA9wM-0VigFQCISD-8" target="4Pg8XA9wM-0VigFQCISD-10">
          <mxGeometry relative="1" as="geometry" />
        </mxCell>
        <mxCell id="4Pg8XA9wM-0VigFQCISD-8" value="Input age2" style="shape=parallelogram;perimeter=parallelogramPerimeter;whiteSpace=wrap;html=1;fixedSize=1;" vertex="1" parent="1">
          <mxGeometry x="354" y="600" width="120" height="60" as="geometry" />
        </mxCell>
        <mxCell id="4Pg8XA9wM-0VigFQCISD-13" value="" style="edgeStyle=orthogonalEdgeStyle;rounded=0;orthogonalLoop=1;jettySize=auto;html=1;" edge="1" parent="1" source="4Pg8XA9wM-0VigFQCISD-10" target="4Pg8XA9wM-0VigFQCISD-12">
          <mxGeometry relative="1" as="geometry" />
        </mxCell>
        <mxCell id="4Pg8XA9wM-0VigFQCISD-10" value="Output name1 age1" style="shape=parallelogram;perimeter=parallelogramPerimeter;whiteSpace=wrap;html=1;fixedSize=1;" vertex="1" parent="1">
          <mxGeometry x="351" y="740" width="126" height="60" as="geometry" />
        </mxCell>
        <mxCell id="4Pg8XA9wM-0VigFQCISD-15" value="" style="edgeStyle=orthogonalEdgeStyle;rounded=0;orthogonalLoop=1;jettySize=auto;html=1;" edge="1" parent="1" source="4Pg8XA9wM-0VigFQCISD-12" target="4Pg8XA9wM-0VigFQCISD-14">
          <mxGeometry relative="1" as="geometry" />
        </mxCell>
        <mxCell id="4Pg8XA9wM-0VigFQCISD-12" value="Output name2 age2" style="shape=parallelogram;perimeter=parallelogramPerimeter;whiteSpace=wrap;html=1;fixedSize=1;" vertex="1" parent="1">
          <mxGeometry x="351" y="880" width="126" height="60" as="geometry" />
        </mxCell>
        <mxCell id="4Pg8XA9wM-0VigFQCISD-17" value="" style="edgeStyle=orthogonalEdgeStyle;rounded=0;orthogonalLoop=1;jettySize=auto;html=1;" edge="1" parent="1" source="4Pg8XA9wM-0VigFQCISD-14" target="4Pg8XA9wM-0VigFQCISD-16">
          <mxGeometry relative="1" as="geometry" />
        </mxCell>
        <mxCell id="4Pg8XA9wM-0VigFQCISD-14" value="Output name1 age2" style="shape=parallelogram;perimeter=parallelogramPerimeter;whiteSpace=wrap;html=1;fixedSize=1;" vertex="1" parent="1">
          <mxGeometry x="351" y="1020" width="126" height="60" as="geometry" />
        </mxCell>
        <mxCell id="4Pg8XA9wM-0VigFQCISD-19" value="" style="edgeStyle=orthogonalEdgeStyle;rounded=0;orthogonalLoop=1;jettySize=auto;html=1;" edge="1" parent="1" source="4Pg8XA9wM-0VigFQCISD-16" target="4Pg8XA9wM-0VigFQCISD-18">
          <mxGeometry relative="1" as="geometry" />
        </mxCell>
        <mxCell id="4Pg8XA9wM-0VigFQCISD-16" value="Output name2 age1" style="shape=parallelogram;perimeter=parallelogramPerimeter;whiteSpace=wrap;html=1;fixedSize=1;" vertex="1" parent="1">
          <mxGeometry x="351" y="1160" width="126" height="60" as="geometry" />
        </mxCell>
        <mxCell id="4Pg8XA9wM-0VigFQCISD-18" value="End" style="ellipse;whiteSpace=wrap;html=1;" vertex="1" parent="1">
          <mxGeometry x="354" y="1300" width="120" height="80" as="geometry" />
        </mxCell>
      </root>
    </mxGraphModel>
  </diagram>
</mxfile>
